<?xml version="1.0" encoding="utf-8"?>
<!-- Svg Vector Icons : http://www.onlinewebfonts.com/icon -->
<!DOCTYPE svg PUBLIC "-//W3C//DTD SVG 1.1//EN" "http://www.w3.org/Graphics/SVG/1.1/DTD/svg11.dtd">
<svg version="1.1" xmlns="http://www.w3.org/2000/svg" xmlns:xlink="http://www.w3.org/1999/xlink" x="0px" y="0px" viewBox="0 0 1000 1000" enable-background="new 0 0 1000 1000" xml:space="preserve">
<metadata> Svg Vector Icons : http://www.onlinewebfonts.com/icon </metadata>
<g><path d="M500,990.4C229.4,990.4,10,770.8,10,500C10,229.2,229.4,9.6,500,9.6c270.6,0,490,219.6,490,490.4C990,770.8,770.6,990.4,500,990.4z M500,74.8c-234.6,0-424.8,190.3-424.8,425.1C75.2,734.7,265.4,925,500,925c234.6,0,424.8-190.3,424.8-425.1C924.7,265.2,734.6,74.8,500,74.8z M751.4,289.5H258c-26.9,0-48.7,21.9-48.7,48.7v330.3c0,26.9,21.9,48.7,48.7,48.7h493.4c26.9,0,48.7-21.9,48.7-48.7V338.2C800.2,311.3,778.3,289.5,751.4,289.5z M247.8,428.8l123,71l-123,82.4V428.8z M761.6,668.5c0,5.6-4.6,10.2-10.2,10.2H258c-5.6,0-10.2-4.6-10.2-10.2v-39.9L408,521.3l96.7,55.8l96.2-55.5l160.7,107.7L761.6,668.5L761.6,668.5z M761.6,582.8l-123.5-82.8l123.5-71.3V582.8z M761.6,384.3L504.7,532.6L247.8,384.3v-46.1c0-5.6,4.6-10.2,10.2-10.2h493.4c5.6,0,10.2,4.6,10.2,10.2L761.6,384.3z"/></g>
</svg>